<?xml version="1.0" encoding="UTF-8"?>
<svg id="Layer_2" data-name="Layer 2" xmlns="http://www.w3.org/2000/svg" viewBox="0 0 376.31 65.68">
  <defs>
    <style>
      .cls-1 {
        fill: #2d81ff;
      }

      .cls-2 {
        fill: #fff;
      }
    </style>
  </defs>
  <g id="Layer_1-2" data-name="Layer 1">
    <g>
      <path class="cls-2" d="M92.52,55.99l13.32-45.94h22.71l13.95,45.94h-17.18l-1.82-8.81h-12.48l-2.03,8.81h-16.48ZM112.5,38.97h9.32l-4.56-20.1-4.77,20.1Z"/>
      <path class="cls-2" d="M145.94,55.99V22.54h14.58v8.35c.93-3.03,2.39-5.25,4.38-6.68,1.99-1.42,4.36-2.14,7.12-2.14l1.75,11.82c-1.12-.13-2.22-.2-3.29-.2-6.5,0-9.75,2.54-9.75,7.61v14.69h-14.79Z"/>
      <path class="cls-2" d="M193.68,56.53c-3.32,0-6.02-.53-8.1-1.6-2.08-1.07-3.59-2.51-4.52-4.34-.93-1.82-1.4-3.87-1.4-6.14v-13.62h-4.49v-8.28h5.54l6.52-10.55h7.22v10.55h8.13v8.28h-8.13v11.68c0,1.02.35,1.81,1.05,2.37.7.56,1.61.83,2.73.83s2.24-.27,3.36-.8l1.05,9.28c-1.12.76-2.55,1.33-4.28,1.74-1.73.4-3.29.6-4.7.6Z"/>
      <path class="cls-2" d="M231.12,57.06c-5.05,0-9.45-.97-13.21-2.9-3.76-1.94-6.68-4.66-8.76-8.18-2.08-3.52-3.12-7.61-3.12-12.29s1.09-9.06,3.26-12.75c2.17-3.69,5.16-6.6,8.97-8.71,3.81-2.11,8.19-3.17,13.14-3.17,5.51,0,9.84,1.02,12.97,3.07l-1.89,10.62c-1.36-.62-2.77-1.08-4.24-1.37-1.47-.29-2.86-.43-4.17-.43-3.83,0-6.85,1.09-9.04,3.27-2.2,2.18-3.29,5.21-3.29,9.08,0,3.65,1.06,6.51,3.19,8.58,2.13,2.07,5.08,3.1,8.87,3.1,1.5,0,2.86-.13,4.1-.4,1.24-.27,2.77-.76,4.59-1.47l1.96,10.55c-4.07,2.27-8.51,3.41-13.32,3.41Z"/>
      <path class="cls-2" d="M249.14,55.99V22.54h14.58v8.35c.93-3.03,2.39-5.25,4.38-6.68,1.99-1.42,4.36-2.14,7.12-2.14l1.75,11.82c-1.12-.13-2.22-.2-3.29-.2-6.5,0-9.75,2.54-9.75,7.61v14.69h-14.79Z"/>
      <path class="cls-2" d="M294.91,56.53c-3.22,0-6.15-.75-8.76-2.24-2.62-1.49-4.69-3.55-6.21-6.18-1.52-2.62-2.28-5.63-2.28-9.01s.76-6.34,2.28-8.88c1.52-2.54,3.59-4.53,6.21-5.98,2.62-1.45,5.54-2.17,8.76-2.17,2.29,0,4.51.6,6.66,1.8,2.15,1.2,3.81,3.18,4.98,5.94v-7.28h14.58v33.45h-14.72v-6.21c-1.12,2.18-2.62,3.85-4.49,5.01-1.87,1.16-4.21,1.74-7.01,1.74ZM299.47,45.98c1.92,0,3.55-.66,4.91-1.97,1.36-1.31,2.03-2.93,2.03-4.84s-.68-3.48-2.03-4.71c-1.36-1.22-2.99-1.84-4.91-1.84-2.01,0-3.69.65-5.05,1.94-1.36,1.29-2.03,2.87-2.03,4.74s.68,3.45,2.03,4.74,3.04,1.94,5.05,1.94Z"/>
      <path class="cls-2" d="M329.06,55.99v-25.17h-4.42v-8.28h4.42v-1.94c0-2.45.63-4.55,1.89-6.31,1.26-1.76,3.01-3.12,5.26-4.07,2.24-.96,4.84-1.44,7.78-1.44,3.74,0,6.82.49,9.25,1.47l-.98,8.48c-1.03-.22-2.03-.39-3.01-.5-.98-.11-1.94-.17-2.87-.17-3.13,0-4.7.91-4.7,2.74,0,.58.16,1.16.49,1.74h9.88v8.28h-8.2v25.17h-14.79Z"/>
      <path class="cls-2" d="M367.33,56.53c-3.32,0-6.02-.53-8.1-1.6s-3.59-2.51-4.52-4.34c-.94-1.82-1.4-3.87-1.4-6.14v-13.62h-4.49v-8.28h5.54l6.52-10.55h7.22v10.55h8.13v8.28h-8.13v11.68c0,1.02.35,1.81,1.05,2.37.7.56,1.61.83,2.73.83s2.24-.27,3.37-.8l1.05,9.28c-1.12.76-2.55,1.33-4.28,1.74-1.73.4-3.29.6-4.7.6Z"/>
    </g>
    <path class="cls-1" d="M69.38,45.46c-3.18-6.24-6.58-12.49-9.86-18.53-3.31-6.08-6.72-12.37-9.91-18.63l-.05-.09C46.44,3.07,41.24,0,35.66,0s-10.34,3-13.13,8.23L.97,48.96l-.03.07c-1.51,3.8-1.2,8.03.82,11.31,1.9,3.08,5.01,4.96,8.76,5.28.38.03.75.05,1.1.05,2.94,0,4.98-1.12,7.33-2.41,7.13-3.91,19.45-11.21,27.61-16.04,2.6-1.54,4.95-2.93,6.31-3.73l10.71,20.43c.2.39.54.7.95.86.46.19.98.2,1.43,0,1.39-.66,3.05-2.47,3.07-2.49,5.22-5.9,3.03-11.55.34-16.83ZM34.53,14.8c.31-.46.77-.99,1.32-.99.58,0,1.29.57,1.85,1.49,1.57,2.56,2.99,5.44,4.35,8.22,1.34,2.73,2.72,5.55,4.29,8.15l.02.05-29.6,16.99L34.53,14.8Z"/>
  </g>
</svg>