<?xml version="1.0" encoding="utf-8"?>
<!-- Generator: Adobe Illustrator 24.1.0, SVG Export Plug-In . SVG Version: 6.00 Build 0)  -->
<svg version="1.1" xmlns="http://www.w3.org/2000/svg" xmlns:xlink="http://www.w3.org/1999/xlink" x="0px" y="0px"
	 viewBox="0 0 445.39 400" enable-background="new 0 0 445.39 400" xml:space="preserve">
<g id="Info">
</g>
<g id="Logo-02">
</g>
<g id="Logo-01">
</g>
<g id="HQ">
	<g>
		<g>
			<g>
				<path fill="#FC3357" d="M11.753,360.215c-0.176-0.352-0.263-0.673-0.263-0.967c0-0.701,0.321-1.299,0.966-1.798
					c0.643-0.496,1.374-0.745,2.195-0.745h5.092c1.405,0,2.313,0.82,2.723,2.458c0.468,1.699,1.55,3.073,3.248,4.126
					c1.697,1.053,4.244,1.579,7.639,1.579c3.745,0,6.336-0.67,7.77-2.02c1.434-1.343,2.152-3.275,2.152-5.794
					c0-2.574-0.966-4.608-2.897-6.102c-1.931-1.49-4.654-2.178-8.165-2.061c-4.918,0.116-8.825-0.338-11.722-1.361
					c-2.897-1.026-4.976-2.444-6.234-4.259c-1.26-1.815-1.887-3.832-1.887-6.058c0-4.157,1.856-7.449,5.574-9.88
					c3.718-2.427,8.97-3.641,15.761-3.641c7.55,0,13.286,1.61,17.209,4.827c1.579,1.289,2.371,2.431,2.371,3.425
					c0,0.585-0.236,1.026-0.703,1.316l-1.494,1.142c-0.585,0.41-1.14,0.615-1.668,0.615c-0.585,0-1.053-0.147-1.403-0.441
					c-2.518-1.87-4.933-3.275-7.244-4.212c-2.313-0.937-4.668-1.405-7.068-1.405c-3.278,0-5.781,0.776-7.507,2.325
					c-1.728,1.552-2.59,3.528-2.59,5.928c0,2.284,0.658,3.921,1.974,4.916c1.318,0.995,3.526,1.494,6.63,1.494
					c3.979,0,7.666,0.526,11.062,1.579c3.393,1.053,6.116,2.591,8.165,4.608c2.048,2.02,3.073,4.434,3.073,7.244
					c0,2.519-0.909,4.772-2.723,6.762c-1.814,1.99-4.316,3.542-7.505,4.653c-3.191,1.111-6.835,1.668-10.932,1.668
					c-5.326,0-9.936-0.964-13.828-2.895C15.63,365.309,13.04,362.967,11.753,360.215z"/>
				<path fill="#FC3357" d="M78.743,367.326c0,1.931-0.966,2.899-2.897,2.899H71.28c-1.931,0-2.897-0.967-2.897-2.899v-37.491
					h-8.341c-1.931,0-2.897-0.875-2.897-2.632s0.966-2.636,2.897-2.636h8.341v-19.051c0-1.931,0.966-2.896,2.897-2.896h4.565
					c1.931,0,2.897,0.964,2.897,2.896v19.051h8.341c1.931,0,2.897,0.879,2.897,2.636s-0.966,2.632-2.897,2.632h-8.341V367.326z"/>
				<path fill="#FC3357" d="M110.877,323.692c4.331,0,8.136,1.039,11.414,3.114c3.277,2.078,5.839,4.906,7.683,8.475
					c1.843,3.569,2.766,7.61,2.766,12.115c0,4.331-0.865,8.225-2.591,11.678c-1.726,3.456-4.142,6.177-7.242,8.167
					c-3.104,1.99-6.733,2.984-10.888,2.984c-4.389,0-8.239-1.012-11.546-3.029c-3.307-2.02-5.882-4.786-7.726-8.297
					c-1.844-3.514-2.766-7.493-2.766-11.941c0-4.509,0.863-8.519,2.59-12.03c1.726-3.511,4.155-6.263,7.288-8.252
					C102.989,324.686,106.664,323.692,110.877,323.692z M110.877,328.959c-2.282,0-4.244,0.776-5.882,2.325
					c-1.639,1.552-2.897,3.689-3.776,6.41c-0.879,2.721-1.318,5.811-1.318,9.264c0,6.205,1.171,10.755,3.513,13.65
					c2.34,2.899,5.21,4.348,8.604,4.348c2.634,0,4.741-0.848,6.321-2.547c1.581-1.696,2.723-3.89,3.425-6.584
					c0.702-2.694,1.053-5.5,1.053-8.43c0-5.384-1.053-9.804-3.16-13.257C117.55,330.686,114.622,328.959,110.877,328.959z"/>
				<path fill="#FC3357" d="M169.966,326.498c0.819,0.588,1.477,1.186,1.976,1.802c0.496,0.615,0.745,1.186,0.745,1.713
					c0,0.41-0.205,0.79-0.614,1.142l-1.581,1.142c-0.585,0.41-1.142,0.612-1.668,0.612c-0.526,0-0.966-0.174-1.316-0.526
					c-1.523-1.285-2.81-2.15-3.863-2.588c-1.055-0.441-2.138-0.66-3.249-0.66c-1.931,0-3.791,0.909-5.576,2.721
					c-1.786,1.815-3.234,4.215-4.345,7.199c-1.113,2.984-1.668,6.235-1.668,9.746v17.646c0,1.931-0.966,2.899-2.897,2.899h-4.478
					c-0.82,0-1.523-0.291-2.108-0.879c-0.586-0.585-0.879-1.285-0.879-2.106v-38.896c0-1.931,0.966-2.899,2.897-2.899h4.567
					c1.931,0,2.897,0.879,2.897,2.636c1.637-1.053,3.424-1.873,5.355-2.458c1.931-0.585,4.008-0.879,6.234-0.879
					c1.814,0,3.542,0.191,5.181,0.571C167.214,324.816,168.677,325.507,169.966,326.498z"/>
				<path fill="#FC3357" d="M199.642,386.203c-0.526,1.583-1.639,2.372-3.336,2.372h-3.16c-1.755,0-2.634-0.704-2.634-2.109
					c0-0.41,0.087-0.82,0.263-1.227l5.181-15.277c-0.352-0.352-0.673-0.82-0.966-1.405l-18.263-40.564
					c-0.234-0.468-0.35-0.937-0.35-1.405c0-1.347,0.848-2.02,2.547-2.02h5.179c1.581,0,2.692,0.762,3.336,2.284l12.38,31.608
					l10.712-31.519c0.526-1.579,1.608-2.372,3.248-2.372h4.302c1.757,0,2.634,0.704,2.634,2.109c0,0.352-0.087,0.762-0.263,1.227
					L199.642,386.203z"/>
				<path fill="#FC3357" d="M246.262,367.326c0,1.931-0.966,2.899-2.897,2.899H238.8c-1.931,0-2.897-0.967-2.897-2.899v-37.491
					h-8.341c-1.931,0-2.897-0.875-2.897-2.632s0.966-2.636,2.897-2.636h8.341v-19.051c0-1.931,0.966-2.896,2.897-2.896h4.565
					c1.931,0,2.897,0.964,2.897,2.896v19.051h8.341c1.931,0,2.897,0.879,2.897,2.636s-0.966,2.632-2.897,2.632h-8.341V367.326z"/>
				<path fill="#FC3357" d="M296.395,363.463c-1.815,1.815-4.114,3.395-6.893,4.741c-2.781,1.347-5.81,2.02-9.086,2.02
					c-7.259,0-12.893-2.092-16.901-6.28c-4.01-4.184-6.015-9.818-6.015-16.901c0-4.447,0.921-8.427,2.766-11.941
					c1.844-3.511,4.389-6.29,7.639-8.338c3.249-2.051,7.008-3.073,11.283-3.073c4.389,0,8.237,0.937,11.544,2.807
					c3.307,1.877,5.897,4.451,7.77,7.729c1.873,3.278,2.81,7.052,2.81,11.326c0,0.82-0.279,1.49-0.834,2.02
					c-0.557,0.526-1.244,0.79-2.063,0.79h-31.432c0.232,5.21,1.608,9.278,4.126,12.204c2.516,2.926,5.618,4.389,9.307,4.389
					c1.872,0,3.366-0.496,4.477-1.494c1.113-0.995,2.224-2.4,3.336-4.215c0.644-1.285,1.639-1.784,2.986-1.49l3.248,0.79
					c1.814,0.468,2.723,1.494,2.723,3.073C297.185,362.321,296.921,362.936,296.395,363.463z M279.186,328.959
					c-1.699,0-3.367,0.629-5.005,1.887c-1.639,1.258-3.073,2.94-4.302,5.049c-1.229,2.106-2.078,4.506-2.547,7.199h22.653
					c-0.352-4.157-1.494-7.552-3.425-10.187C284.628,330.276,282.17,328.959,279.186,328.959z"/>
				<path fill="#FC3357" d="M309.213,305.604c0-0.82,0.395-1.521,1.185-2.109c0.791-0.585,1.742-0.875,2.854-0.875h2.897
					c1.111,0,2.048,0.291,2.81,0.875c0.759,0.588,1.14,1.289,1.14,2.109v61.636c0,0.82-0.381,1.521-1.14,2.106
					c-0.762,0.585-1.699,0.879-2.81,0.879h-2.897c-1.113,0-2.063-0.294-2.854-0.879c-0.79-0.585-1.185-1.285-1.185-2.106V305.604z"
					/>
				<path fill="#FC3357" d="M333.269,305.604c0-0.82,0.395-1.521,1.185-2.109c0.791-0.585,1.742-0.875,2.854-0.875h2.897
					c1.111,0,2.048,0.291,2.81,0.875c0.759,0.588,1.14,1.289,1.14,2.109v61.636c0,0.82-0.381,1.521-1.14,2.106
					c-0.762,0.585-1.699,0.879-2.81,0.879h-2.897c-1.113,0-2.063-0.294-2.854-0.879c-0.79-0.585-1.185-1.285-1.185-2.106V305.604z"
					/>
				<path fill="#FC3357" d="M390.953,363.463c-1.815,1.815-4.114,3.395-6.893,4.741c-2.781,1.347-5.81,2.02-9.086,2.02
					c-7.259,0-12.893-2.092-16.901-6.28c-4.01-4.184-6.015-9.818-6.015-16.901c0-4.447,0.921-8.427,2.766-11.941
					c1.844-3.511,4.389-6.29,7.639-8.338c3.249-2.051,7.008-3.073,11.283-3.073c4.389,0,8.237,0.937,11.544,2.807
					c3.307,1.877,5.897,4.451,7.77,7.729c1.873,3.278,2.81,7.052,2.81,11.326c0,0.82-0.279,1.49-0.834,2.02
					c-0.557,0.526-1.244,0.79-2.063,0.79H361.54c0.232,5.21,1.608,9.278,4.126,12.204c2.516,2.926,5.618,4.389,9.307,4.389
					c1.872,0,3.366-0.496,4.477-1.494c1.113-0.995,2.224-2.4,3.336-4.215c0.644-1.285,1.639-1.784,2.986-1.49l3.248,0.79
					c1.814,0.468,2.723,1.494,2.723,3.073C391.743,362.321,391.479,362.936,390.953,363.463z M373.744,328.959
					c-1.699,0-3.367,0.629-5.005,1.887c-1.639,1.258-3.073,2.94-4.302,5.049c-1.229,2.106-2.078,4.506-2.547,7.199h22.653
					c-0.352-4.157-1.494-7.552-3.425-10.187C379.186,330.276,376.728,328.959,373.744,328.959z"/>
				<path fill="#FC3357" d="M433.095,326.498c0.819,0.588,1.477,1.186,1.976,1.802c0.496,0.615,0.745,1.186,0.745,1.713
					c0,0.41-0.205,0.79-0.614,1.142l-1.581,1.142c-0.585,0.41-1.142,0.612-1.668,0.612c-0.526,0-0.966-0.174-1.316-0.526
					c-1.523-1.285-2.81-2.15-3.863-2.588c-1.055-0.441-2.138-0.66-3.249-0.66c-1.931,0-3.791,0.909-5.576,2.721
					c-1.786,1.815-3.234,4.215-4.345,7.199c-1.113,2.984-1.668,6.235-1.668,9.746v17.646c0,1.931-0.966,2.899-2.897,2.899h-4.478
					c-0.82,0-1.523-0.291-2.108-0.879c-0.586-0.585-0.879-1.285-0.879-2.106v-38.896c0-1.931,0.966-2.899,2.897-2.899h4.567
					c1.931,0,2.897,0.879,2.897,2.636c1.637-1.053,3.424-1.873,5.355-2.458c1.931-0.585,4.008-0.879,6.234-0.879
					c1.814,0,3.542,0.191,5.181,0.571C430.343,324.816,431.806,325.507,433.095,326.498z"/>
			</g>
		</g>
		<g>
			<g>
				<path fill="#FC3357" d="M298.538,231.513c8.136-2.85,17.353-6.214,25.309-3.132c7.186,4.28,17.469,5.82,24.93,8.286
					c-18.907-20.318-9.941-51.281-17.082-75.872c-6.206-28.872-39.419-45.016-48.761-71.628
					c10.394-14.562,28.48-23.667,41.65-36.064c10.186,26.103,11.817,55.971,0.313,81.949c44.728-37.122-2.546-84.167,22.308-123.628
					c-33.722,10.69-62.785,35.329-78.847,66.848c-22.506-15.829-66.675-14.325-89.411,0c-16.063-31.518-45.126-56.158-78.847-66.848
					c24.829,39.354-22.383,86.623,22.308,123.628c-11.504-25.978-9.873-55.846,0.313-81.949
					c13.169,12.39,31.258,21.507,41.648,36.06c-9.339,26.616-42.554,42.762-48.755,71.634c-7.145,24.582,1.818,55.565-17.086,75.87
					c17.206-3.952,32.174-14.781,50.239-5.154c-7.217,5.386-16.687,7.645-25.558,6.097c23.917,19.861,42.782,4.264,70.504,37.304
					c36.911,30.18,61.192-7.056,91.643-23.322c13.006-3.683,29.561-2.383,38.739-13.982
					C315.225,239.158,305.755,236.899,298.538,231.513z M280.323,228.494c-7.575,6.139-15.389,11.988-22.481,18.759
					c-6.552,6.255-10.939,14.235-17.615,20.136c-1.624,1.435-3.39,2.756-5.335,3.603c0.203-0.493,0.437-0.97,0.561-1.505
					c0.7-2.999,0.11-6.169-1.442-8.769c-5.487-9.189-15.231-9.183-20.714,0.001c-1.552,2.599-2.141,5.769-1.442,8.768
					c0.125,0.535,0.358,1.012,0.561,1.505c-1.945-0.847-3.712-2.168-5.335-3.603c-6.676-5.901-11.063-13.881-17.615-20.136
					c-7.092-6.771-14.907-12.62-22.481-18.759c-15.004-12.16-30.008-27.71-31.577-47.61c-1.647-20.903,12.78-40.249,30.425-49.888
					c16.494-9.011,38.974-13.956,57.582-13.203c0.131,0.331,0.191,0.687,0.244,1.041c0.052-0.355,0.112-0.71,0.236-1.044
					c19.322,0.719,40.252,3.738,57.58,13.205c17.645,9.64,32.072,28.986,30.425,49.888
					C310.331,200.784,295.326,216.334,280.323,228.494z"/>
				<path fill="#FC3357" d="M291.338,194.539c-3.889,6.468-10.795,10.513-17.779,13.375c-4.478,1.835-9.161,3.327-13.162,6.049
					c-5.133,3.492-13.532,14.199-10.582,20.932c1.468-2.983,2.733-5.757,5.583-7.793c1.49-1.064,3.169-1.828,4.836-2.585
					c3.762-1.709,7.523-3.417,11.285-5.126c4.63-2.103,9.308-4.235,13.32-7.36c10.083-7.856,14.737-22.044,11.265-34.346
					C295.266,183.504,294.368,189.5,291.338,194.539z"/>
				<path fill="#FC3357" d="M258.273,208.93c7.117-4.243,15.736-5.786,22.276-10.873c4.218-3.282,6.764-7.596,8.375-12.628
					c2.16-6.746,4.321-14.081,1.968-20.762c-0.601,1.758-1.243,3.583-2.561,4.893c-1.45,1.44-3.515,2.053-5.517,2.466
					c-8.18,1.687-16.248,1.131-24.4,3.661c-4.206,1.305-8.244,3.255-11.338,6.462c-2.973,3.082-4.836,7.063-6.291,11.091
					c-4.224,11.688-5.416,24.457-3.428,36.725c2.35-6.461,7.932-11.107,13.276-15.431
					C253.091,212.544,255.559,210.549,258.273,208.93z M244.964,212.531c0.08-9.048,3.988-18,10.568-24.21
					c3.394-3.203,7.478-5.655,11.872-7.215c2.259-0.802,11.169-3.811,13.046-1.474c2.135,2.662-1.613,8.623-2.993,10.981
					c-0.188,0.32-0.381,0.635-0.579,0.944c-2.402,3.746-5.579,6.666-9.508,8.876c-4.151,2.335-8.614,3.396-13.007,5.089
					C252.159,206.372,244.99,209.575,244.964,212.531z"/>
				<path fill="#FC3357" d="M186.909,213.963c-4.001-2.722-8.684-4.214-13.162-6.049c-6.984-2.862-13.889-6.907-17.778-13.375
					c-3.03-5.039-3.928-11.035-4.766-16.855c-3.472,12.302,1.182,26.49,11.265,34.346c4.011,3.125,8.69,5.257,13.32,7.36
					c3.762,1.709,7.524,3.417,11.285,5.126c1.667,0.757,3.346,1.521,4.836,2.585c2.85,2.036,4.114,4.81,5.583,7.793
					C200.441,228.162,192.042,217.455,186.909,213.963z"/>
				<path fill="#FC3357" d="M200.23,182.148c-3.093-3.207-7.131-5.157-11.338-6.462c-8.153-2.529-16.221-1.973-24.4-3.661
					c-2.002-0.413-4.067-1.026-5.517-2.466c-1.318-1.31-1.96-3.134-2.561-4.893c-2.352,6.681-0.192,14.016,1.968,20.762
					c1.611,5.032,4.156,9.347,8.375,12.628c6.54,5.087,15.159,6.631,22.276,10.873c2.715,1.618,5.183,3.614,7.64,5.602
					c5.345,4.324,10.926,8.97,13.276,15.431c1.988-12.268,0.796-25.037-3.428-36.725C205.065,189.211,203.203,185.23,200.23,182.148
					z M192.942,205.521c-4.392-1.693-8.856-2.754-13.007-5.089c-3.929-2.21-7.106-5.129-9.508-8.876
					c-0.198-0.309-0.391-0.624-0.579-0.944c-1.381-2.358-5.128-8.32-2.993-10.981c1.877-2.337,10.787,0.672,13.046,1.474
					c4.394,1.561,8.479,4.013,11.872,7.215c6.58,6.21,10.488,15.162,10.568,24.21C202.315,209.575,195.147,206.372,192.942,205.521z
					"/>
				<path fill="#FC3357" d="M223.653,132.767c-4.051,0-7.336,3.284-7.336,7.336c0,4.051,7.336,24.912,7.336,24.912
					s7.336-20.861,7.336-24.912C230.989,136.052,227.704,132.767,223.653,132.767z"/>
				<path fill="#FC3357" d="M210.224,149.476c0-2.055-1.665-3.72-3.72-3.719c-2.054,0-3.72,1.666-3.72,3.721
					s3.72,12.633,3.72,12.633S210.224,151.531,210.224,149.476z"/>
				<path fill="#FC3357" d="M244.522,149.476c0-2.055-1.665-3.72-3.72-3.719c-2.054,0-3.72,1.666-3.72,3.721
					s3.72,12.633,3.72,12.633S244.522,151.531,244.522,149.476z"/>
			</g>
		</g>
	</g>
</g>
</svg>
