<?xml version="1.0" standalone="no"?>
<!DOCTYPE svg PUBLIC "-//W3C//DTD SVG 20010904//EN"
 "http://www.w3.org/TR/2001/REC-SVG-20010904/DTD/svg10.dtd">
<svg version="1.0" xmlns="http://www.w3.org/2000/svg"
 width="1000.000000pt" height="1000.000000pt" viewBox="0 0 1000.000000 1000.000000"
 preserveAspectRatio="xMidYMid meet">
<metadata>
Created by potrace 1.14, written by Peter Selinger 2001-2017
</metadata>
<g transform="translate(0.000000,1000.000000) scale(0.100000,-0.100000)"
fill="#000000" stroke="none">
<path d="M4825 9920 c-106 -16 -133 -21 -224 -46 -177 -48 -352 -134 -507
-250 -80 -60 -3175 -3150 -3265 -3260 -166 -204 -298 -445 -380 -696 -16 -48
-31 -98 -33 -110 -11 -50 -15 -70 -21 -88 -6 -20 -9 -34 -20 -100 -4 -25 -9
-54 -12 -65 -24 -113 -23 -493 2 -630 78 -433 210 -731 462 -1042 64 -79 1386
-1413 1400 -1413 10 0 2533 2527 2533 2536 -1 5 -385 392 -854 859 l-853 850
1509 1511 1509 1510 -38 37 c-134 128 -298 232 -485 306 -71 28 -241 74 -323
86 -61 10 -344 13 -400 5z"/>
<path d="M6516 6511 c-696 -696 -1266 -1269 -1266 -1273 0 -3 383 -389 850
-856 467 -468 850 -853 850 -857 0 -4 -669 -676 -1487 -1495 -819 -818 -1496
-1497 -1506 -1508 -18 -20 -18 -21 28 -63 25 -23 72 -62 103 -86 31 -23 62
-46 67 -51 6 -4 51 -31 100 -60 141 -81 315 -146 450 -168 17 -3 37 -7 45 -10
72 -25 412 -24 520 1 14 3 47 10 73 15 180 36 405 141 576 271 50 37 660 640
1618 1598 1574 1574 1580 1580 1648 1666 22 28 43 52 46 55 10 8 121 178 154
235 59 102 168 347 179 403 1 9 6 24 9 32 15 39 40 145 63 266 37 194 39 514
4 714 -5 30 -12 70 -15 89 -3 19 -8 37 -10 41 -2 3 -6 19 -9 34 -19 105 -98
322 -163 450 -20 39 -43 85 -51 101 -20 39 -95 155 -146 225 -76 104 -167 198
-814 846 l-650 651 -1266 -1266z"/>
</g>
</svg>
