<?xml version="1.0" encoding="UTF-8"?>
<svg id="Layer_2" data-name="Layer 2" xmlns="http://www.w3.org/2000/svg" viewBox="0 0 72.22 65.68">
  <g id="Layer_1-2" data-name="Layer 1">
    <path d="M69.38,45.46c-3.18-6.24-6.58-12.49-9.86-18.53-3.31-6.08-6.72-12.37-9.91-18.63l-.05-.09C46.44,3.07,41.24,0,35.66,0s-10.34,3-13.13,8.23L.97,48.96l-.03.07c-1.51,3.8-1.2,8.03.82,11.31,1.9,3.08,5.01,4.96,8.76,5.28.38.03.75.05,1.1.05,2.94,0,4.98-1.12,7.33-2.41,7.13-3.91,19.45-11.21,27.61-16.04,2.6-1.54,4.95-2.93,6.31-3.73l10.71,20.43c.2.39.54.7.95.86.46.19.98.2,1.43,0,1.39-.66,3.05-2.47,3.07-2.49,5.22-5.9,3.03-11.55.34-16.83ZM34.53,14.8c.31-.46.77-.99,1.32-.99.58,0,1.29.57,1.85,1.49,1.57,2.56,2.99,5.44,4.35,8.22,1.34,2.73,2.72,5.55,4.29,8.15l.02.05-29.6,16.99L34.53,14.8Z"/>
  </g>
</svg>