<?xml version="1.0" encoding="UTF-8"?>
<svg id="Layer_1" data-name="Layer 1" xmlns="http://www.w3.org/2000/svg" viewBox="0 0 12 12">
  <path d="M.03,2.19c.14.03.29.07.43.09,1.26.16,1.76-1.08,2.78-1.5,1.26-.52,2.77-.09,2.67,1.5s-1.89,2.3-2.88,3.2c-.38.34-.74.91-.36,1.4.5.64,1.25.06,1.65-.36,1.18-1.22,2.38-3.76,4.38-3.57,1.47.14,2.2,1.65,2.32,2.97h.96l.03.03v1.36h-.99c-.09,1.37-.54,3.03-1.78,3.79-.9.55-2.02.51-2.73-.31-.78-.89-.43-1.96.16-2.84.71-1.06,1.85-1.83,3.12-2.04.04-.61-.34-1.2-.94-1.35-1.15-.3-2.03.74-2.65,1.54-.79,1-1.87,2.88-3.33,2.8-1.19-.07-1.99-1.08-1.93-2.24.05-1.04,1.04-1.89,1.83-2.46.52-.38,1.71-1.05,1.81-1.72.06-.41-.18-.75-.61-.65-.59.13-1.03.85-1.49,1.22-.69.56-1.57.85-2.43.48v-1.3ZM9.73,7.28c-.28.07-.56.16-.81.3-.58.31-1.35,1.09-1.45,1.77-.08.58.45.87.95.62.87-.43,1.26-1.79,1.31-2.69Z"/>
</svg>