<?xml version="1.0" encoding="UTF-8"?>
<svg id="Layer_2" data-name="Layer 2" xmlns="http://www.w3.org/2000/svg" viewBox="0 0 249.21 224.64">
  <g id="Layer_1-2" data-name="Layer 1">
    <path d="M6.64.07c2.98-.4,5.65.92,7.26,3.41l66.32,109.22c4.55,5.38,10.84,10.03,18,11.02,8.98,1.24,17.64-3.5,25.87-6.45,38.94-13.94,78-27.61,117.04-41.24,6.08-.57,9.93,4.49,7.2,10.08l-76.03,135.25c-2.61,3.2-7.54,4.48-11.03,1.92-3.25-2.39-7.45-7.65-10.43-10.68-9.93-10.07-19.84-20.11-29.75-30.2-11.48-11.69-20.14-24.31-39.09-20.64-14.85,2.87-21.88,16.72-32.48,25.55-3.85,3.21-9.25,3.5-12.46-.75-1.69-2.24-2.1-6.25-2.7-9.05C22.12,121.2,12.09,64.37,0,8.01-.16,4.05,2.67.61,6.64.07Z"/>
  </g>
</svg>