<?xml version="1.0" encoding="UTF-8"?>
<svg id="Layer_1" data-name="Layer 1" xmlns="http://www.w3.org/2000/svg" viewBox="0 0 12 12">
  <defs>
    <style>
      .cls-1 {
        fill: #010101;
      }
    </style>
  </defs>
  <path d="M9.26.37c.36.29.62.65.72,1.11.01.14.01.27.01.41t0,.06c0,.51-.07.99-.22,1.47t-.02.06c-.24.83-.68,1.56-1.25,2.21-.02.02-.04.05-.06.07-.21.23-.42.43-.66.63-.02.02-.04.03-.06.05-.87.72-1.93,1.12-3.04,1.29-.03,0-.06.01-.09.02-.63.1-1.3.08-1.85-.27-.11-.08-.21-.18-.31-.28-.02-.02-.03-.03-.05-.05-.32-.34-.43-.82-.43-1.27.02-.45.27-.87.59-1.17.36-.31.81-.47,1.29-.48.62-.01,1.16-.23,1.64-.62.02-.02.04-.03.07-.05.39-.33.67-.89.73-1.39,0-.11.02-.22.02-.33.03-.51.2-.93.57-1.29.07-.06.15-.12.23-.18.02-.01.03-.02.05-.04.63-.43,1.49-.36,2.09.06Z"/>
  <path d="M8.61,6.51c.06,0,.1.02.14.06t.04.05s.03.04.04.06c.01.02.03.04.04.06.01.02.03.04.04.06.4.57.68,1.19.88,1.85t.02.05c.22.71.32,1.62-.02,2.29-.24.47-.63.72-1.11.91-.48.14-1.02.06-1.46-.17-.47-.28-.74-.67-.89-1.19-.03-.12-.04-.25-.04-.37-.02-.65-.25-1.22-.71-1.68-.06-.05-.12-.11-.19-.16-.03-.03-.05-.05-.08-.08.13-.04.25-.08.38-.12.99-.29,2.17-.79,2.86-1.61l.04-.03Z"/>
  <path class="cls-1" d="M4.96.4c.34.27.63.67.69,1.1.02.29.02.58-.08.85t-.03.08c-.16.44-.5.77-.92.97-.29.13-.53.17-.85.18-.68.04-1.21.26-1.72.69-.02.02-.05.04-.07.06,0-.36,0-.71,0-1.07,0-.17,0-.33,0-.5,0-.16,0-.32,0-.48,0-.06,0-.12,0-.18,0-.63.12-1.11.56-1.58.67-.65,1.69-.66,2.43-.13Z"/>
  <path d="M1.98,7.67s.07.05.1.07c.02.01.04.03.06.04.04.03.09.07.13.1.41.3.88.5,1.39.51.58.01,1.1.17,1.52.59.35.4.5.86.47,1.39-.05.49-.31.89-.67,1.21-.46.35-1.01.43-1.57.36-.47-.1-.88-.4-1.15-.79-.07-.12-.13-.23-.18-.36,0-.02-.02-.05-.03-.07-.1-.31-.09-.61-.09-.93,0-.06,0-.12,0-.18,0-.16,0-.32,0-.48,0-.16,0-.33,0-.49,0-.32,0-.64,0-.96Z"/>
</svg>