<?xml version="1.0" encoding="UTF-8"?>
<svg id="Layer_1" data-name="Layer 1" xmlns="http://www.w3.org/2000/svg" viewBox="0 0 12 12">
  <defs>
    <style>
      .cls-1 {
        fill-rule: evenodd;
      }
    </style>
  </defs>
  <path class="cls-1" d="M8.6,2.63c.89,0,1.75.35,2.39.99.63.63.99,1.49,1,2.38,0,.66-.2,1.3-.56,1.84-.36.55-.87.98-1.47,1.24-.6.26-1.27.34-1.91.24-.65-.11-1.25-.4-1.73-.84-.59-.5-1.19-.98-1.79-1.47l.86-.69c.84.67,1.57,1.27,1.85,1.5.39.29.87.45,1.37.45,1.23,0,2.32-1.02,2.3-2.28,0-.42-.13-.84-.35-1.19s-.54-.65-.92-.84c-.38-.19-.8-.27-1.22-.23-.42.04-.82.19-1.17.44-1.82,1.51-3.71,2.97-5.56,4.44-.75.53-1.64,0-1.64-.87C.01,6.58.01,5.42.02,4.26c0-.88.89-1.41,1.65-.88l2.03,1.64-.84.68-1.75-1.38c0,1.12,0,2.24,0,3.36,1.75-1.36,3.49-2.74,5.2-4.15.62-.57,1.44-.89,2.29-.89h0Z"/>
</svg>