<?xml version="1.0" encoding="UTF-8"?>
<svg id="Layer_1" data-name="Layer 1" xmlns="http://www.w3.org/2000/svg" viewBox="0 0 12 12">
  <path d="M7.51,3.04q.14,0,.27,0c.1,0,.2,0,.3,0,.1,0,.21,0,.31,0,.1,0,.21,0,.31,0,.26,0,.51,0,.77,0,.29.67.58,1.34.87,2.01.15.34.29.67.44,1.01.15.35.3.7.45,1.05.06.14.12.27.18.41.08.19.17.38.25.57q.04.09.08.17c.11.25.17.42.27.69h-2.36c-.45-1.18-.89-2.37-1.3-3.56-.31.75-.58,1.51-.85,2.27-.04.13-.09.25-.13.38-.11.3-.22.61-.32.92h-2.26c.29-.76.59-1.51.91-2.26.04-.1.09-.2.13-.31.09-.21.18-.43.27-.64.12-.27.23-.55.35-.82.11-.26.22-.53.34-.79.04-.1.08-.2.13-.3q.06-.14.12-.27c.03-.08.07-.16.1-.24.07-.15.12-.28.12-.28,0,0,.14,0,.26,0Z"/>
  <path d="M1.65,2.96h3.82v1.65h-1.74v4.43H1.65V2.96Z"/>
  <path d="M0,2.96h1.3v1.74H0v-1.74Z"/>
  <path d="M8.25,6.78h.17c.23.72.46,1.43.7,2.17h-1.56c.21-.73.45-1.45.7-2.17Z"/>
</svg>