<svg xmlns="http://www.w3.org/2000/svg" version="1.1" xmlns:xlink="http://www.w3.org/1999/xlink" xmlns:svgjs="http://svgjs.dev/svgjs" width="1440" height="400" preserveAspectRatio="none" viewBox="0 0 1440 400">
    <g mask="url(&quot;#SvgjsMask1003&quot;)" fill="none">
        <path d="M41 400L441 0L717 0L317 400z" fill="url(&quot;#SvgjsLinearGradient1004&quot;)"></path>
        <path d="M243.60000000000002 400L643.6 0L945.1 0L545.1 400z" fill="url(&quot;#SvgjsLinearGradient1004&quot;)"></path>
        <path d="M500.20000000000005 400L900.2 0L1231.7 0L831.7 400z" fill="url(&quot;#SvgjsLinearGradient1004&quot;)"></path>
        <path d="M741.8000000000001 400L1141.8000000000002 0L1249.8000000000002 0L849.8000000000001 400z" fill="url(&quot;#SvgjsLinearGradient1004&quot;)"></path>
        <path d="M1406 400L1006 0L752.5 0L1152.5 400z" fill="url(&quot;#SvgjsLinearGradient1005&quot;)"></path>
        <path d="M1181.4 400L781.4000000000001 0L691.4000000000001 0L1091.4 400z" fill="url(&quot;#SvgjsLinearGradient1005&quot;)"></path>
        <path d="M953.8 400L553.8 0L403.79999999999995 0L803.8 400z" fill="url(&quot;#SvgjsLinearGradient1005&quot;)"></path>
        <path d="M716.1999999999999 400L316.19999999999993 0L149.69999999999993 0L549.6999999999999 400z" fill="url(&quot;#SvgjsLinearGradient1005&quot;)"></path>
        <path d="M1219.8180752761318 400L1440 179.81807527613176L1440 400z" fill="url(&quot;#SvgjsLinearGradient1004&quot;)"></path>
        <path d="M0 400L220.18192472386824 400L 0 179.81807527613176z" fill="url(&quot;#SvgjsLinearGradient1005&quot;)"></path>
    </g>
    <defs>
        <mask id="SvgjsMask1003">
            <rect width="1440" height="400" fill="#ffffff"></rect>
        </mask>
        <linearGradient x1="0%" y1="100%" x2="100%" y2="0%" id="SvgjsLinearGradient1004">
            <stop stop-color="rgba(57, 57, 76, 0.1)" offset="0"></stop>
            <stop stop-opacity="0" stop-color="rgba(57, 57, 76, 0.1)" offset="0.66"></stop>
        </linearGradient>
        <linearGradient x1="100%" y1="100%" x2="0%" y2="0%" id="SvgjsLinearGradient1005">
            <stop stop-color="rgba(57, 57, 76, 0.1)" offset="0"></stop>
            <stop stop-opacity="0" stop-color="rgba(57, 57, 76, 0.1)" offset="0.66"></stop>
        </linearGradient>
    </defs>
</svg>